<svg xmlns="http://www.w3.org/2000/svg" viewBox="0 0 96 96" role="img" aria-label="SuirViewDigital">
  <defs>
    <linearGradient id="p" x1="0" y1="0" x2="1" y2="1"><stop offset="0" stop-color="#13233F"/><stop offset="1" stop-color="#0A0B0F"/></linearGradient>
    <linearGradient id="fg" x1="0" y1="0" x2="1" y2="1"><stop offset="0" stop-color="#E4C888"/><stop offset="1" stop-color="#A9884E"/></linearGradient>
    <linearGradient id="fb" x1="0" y1="0" x2="1" y2="1"><stop offset="0" stop-color="#3B82F6"/><stop offset="1" stop-color="#38BDF8"/></linearGradient>
  </defs>
  <rect x="0" y="0" width="96" height="96" rx="20" fill="url(#p)" stroke="url(#fg)" stroke-width="2"/>
  <g transform="translate(9.76,12.15) scale(0.78)"><path d="M46 28 C46 21.5 35 19.5 28.5 23.5 C21 28 22.5 36 31 39.5 C39.5 43 44.5 46.5 43 53.5 C41.5 60.5 30 63.5 23.5 59.5" fill="none" stroke="url(#fg)" stroke-width="5.6" stroke-linecap="round"/>
        <path d="M50 26 L61 60 L72 26" fill="none" stroke="url(#fg)" stroke-width="6.0" stroke-linecap="round" stroke-linejoin="round"/>
        <path d="M14 71 C30 63 46 79 61 60 C69 50 76 44 84 40" fill="none" stroke="url(#fb)" stroke-width="3.8" stroke-linecap="round" opacity="0.95"/></g>
</svg>