<svg xmlns="http://www.w3.org/2000/svg" viewBox="0 0 96 96" role="img" aria-label="SuirViewDigital">
  <defs>
    <linearGradient id="sqD-panel" x1="0" y1="0" x2="1" y2="1">
      <stop offset="0" stop-color="#13233F"/><stop offset="1" stop-color="#0A0B0F"/>
    </linearGradient>
    <linearGradient id="sqD-gold" x1="0" y1="0" x2="1" y2="1">
      <stop offset="0" stop-color="#E4C888"/><stop offset="0.5" stop-color="#C9A96A"/><stop offset="1" stop-color="#A9884E"/>
    </linearGradient>
    <linearGradient id="sqD-blue" x1="0" y1="0" x2="1" y2="1">
      <stop offset="0" stop-color="#3B82F6"/><stop offset="1" stop-color="#38BDF8"/>
    </linearGradient>
  </defs>
  <rect x="1" y="1" width="94" height="94" rx="20" fill="url(#sqD-panel)" stroke="url(#sqD-gold)" stroke-width="1.6"/>
  <g transform="translate(9.78,7.83) scale(0.78)">
    <path d="M46 28 C46 21.5 35 19.5 28.5 23.5 C21 28 22.5 36 31 39.5 C39.5 43 44.5 46.5 43 53.5 C41.5 60.5 30 63.5 23.5 59.5"
          fill="none" stroke="url(#sqD-gold)" stroke-width="5.2" stroke-linecap="round"/>
    <path d="M50 26 L61 60 L72 26" fill="none" stroke="url(#sqD-gold)" stroke-width="5.6"
          stroke-linecap="round" stroke-linejoin="round"/>
    <path d="M14 71 C30 63 46 79 61 60 C69 50 76 44 84 40"
          fill="none" stroke="url(#sqD-blue)" stroke-width="3.2" stroke-linecap="round" opacity="0.9"/>
    <path d="M20 79 C34 73 46 84 58 74" fill="none" stroke="url(#sqD-blue)" stroke-width="2.2"
          stroke-linecap="round" opacity="0.4"/>
  </g>
</svg>