<svg xmlns="http://www.w3.org/2000/svg" viewBox="0 0 470 120" role="img" aria-label="SuirViewDigital">
  <defs>
    <linearGradient id="lkciL-panel" x1="0" y1="0" x2="1" y2="1">
      <stop offset="0" stop-color="#13233F"/><stop offset="1" stop-color="#0A0B0F"/>
    </linearGradient>
    <linearGradient id="lkciL-gold" x1="0" y1="0" x2="1" y2="1">
      <stop offset="0" stop-color="#E4C888"/><stop offset="0.5" stop-color="#C9A96A"/><stop offset="1" stop-color="#A9884E"/>
    </linearGradient>
    <linearGradient id="lkciL-blue" x1="0" y1="0" x2="1" y2="1">
      <stop offset="0" stop-color="#3B82F6"/><stop offset="1" stop-color="#38BDF8"/>
    </linearGradient>
  </defs>
  <g transform="translate(8,12)">
    <circle cx="48" cy="48" r="46" fill="#FFFFFF" stroke="url(#lkciL-gold)" stroke-width="1.8"/><circle cx="48" cy="48" r="41" fill="none" stroke="url(#lkciL-gold)" stroke-width="0.8" opacity="0.5"/>
  <g transform="translate(13.70,11.95) scale(0.7)">
    <path d="M46 28 C46 21.5 35 19.5 28.5 23.5 C21 28 22.5 36 31 39.5 C39.5 43 44.5 46.5 43 53.5 C41.5 60.5 30 63.5 23.5 59.5"
          fill="none" stroke="url(#lkciL-gold)" stroke-width="5.2" stroke-linecap="round"/>
    <path d="M50 26 L61 60 L72 26" fill="none" stroke="url(#lkciL-gold)" stroke-width="5.6"
          stroke-linecap="round" stroke-linejoin="round"/>
    <path d="M14 71 C30 63 46 79 61 60 C69 50 76 44 84 40"
          fill="none" stroke="url(#lkciL-blue)" stroke-width="3.2" stroke-linecap="round" opacity="0.9"/>
    <path d="M20 79 C34 73 46 84 58 74" fill="none" stroke="url(#lkciL-blue)" stroke-width="2.2"
          stroke-linecap="round" opacity="0.4"/>
  </g>
  </g>
  <g transform="translate(126,0)">
    <text x="0" y="62" font-family="Fraunces, 'Cormorant Garamond', Georgia, serif" font-size="46" font-weight="600" letter-spacing="-0.5" fill="#0A0B0F">Suir<tspan fill="url(#lkciL-gold)">View</tspan></text>
    <text x="2" y="90" font-family="Inter, 'Segoe UI', system-ui, sans-serif" font-size="18" font-weight="500" letter-spacing="7" fill="#5A6478">DIGITAL</text>
  </g>
</svg>